<?xml version="1.0" encoding="UTF-8" standalone="no"?>
<!-- Created with Inkscape (http://www.inkscape.org/) -->

<svg
   width="512"
   height="512"
   viewBox="0 0 135.46666 135.46667"
   version="1.1"
   id="svg1"
   xmlns="http://www.w3.org/2000/svg"
   xmlns:svg="http://www.w3.org/2000/svg">
  <defs
     id="defs1" />
  <path
     id="path1"
     style="fill:#ae99ff;stroke-width:4.23333;stroke-linecap:square;stroke-linejoin:round"
     d="M 67.119933,-0.0144694 C 58.123975,0.0625063 48.995975,1.9436596 40.249739,5.8265177 6.0595812,21.005108 -9.3520742,61.026768 5.8265177,95.216926 21.005108,129.40708 61.02677,144.81874 95.216926,129.64015 l -3.435449,-7.73803 h -10e-4 C 61.887,135.1732 26.835627,121.67388 13.564547,91.780443 0.29346563,61.886999 13.791227,26.836145 43.684672,13.565063 68.707364,2.4563345 97.335893,10.112642 113.78737,30.432251 c 0.0246,-0.01767 0.0568,-0.03447 0.0811,-0.05219 4.68382,-3.416138 2.73754,-10.539595 -5.24516,-16.660998 C 96.740182,4.7400393 82.113197,-0.14276223 67.119933,-0.0144694 Z M 67.494587,12.68088 C 60.104148,12.710388 52.596785,14.23941 45.401879,17.433561 17.599486,29.776329 5.0897607,62.260842 17.432527,90.063235 29.775296,117.86563 62.260842,130.37691 90.063235,118.03414 l 5.17e-4,-5.2e-4 -3.435449,-7.73854 -5.17e-4,5.1e-4 C 63.144991,120.72069 35.596686,110.11006 25.17159,86.627269 14.746492,63.144475 25.354534,35.597204 48.837329,25.172107 c 18.281519,-8.116014 39.024816,-3.481125 52.237121,10.048482 3.32119,-0.714988 6.40197,-1.650194 8.92349,-2.738851 C 99.446031,19.80691 83.753554,12.61596 67.494587,12.68088 Z m 1.136365,12.713952 C 62.599484,25.264486 56.442216,26.4288 50.55557,29.042155 29.163826,38.538938 19.544854,63.517283 29.041638,84.909028 38.538421,106.30077 63.5178,115.92233 84.909545,106.42554 l 0.001,-5.1e-4 -3.435449,-7.738032 C 64.380049,106.2763 44.368961,98.570211 36.779667,81.475129 29.19037,64.380051 36.896459,44.368964 53.991536,36.779667 c 7.936482,-3.523372 16.50165,-3.749633 24.160282,-1.270724 4.500133,1.472029 11.20768,1.503354 17.750854,0.61495 C 88.386325,29.426049 78.6834,25.612076 68.630952,25.394832 Z m 37.900528,16.313216 -7.278108,18.747176 -18.747176,7.278108 18.747176,7.278109 7.278108,18.747176 7.27759,-18.747176 18.74718,-7.278109 -18.74718,-7.278108 z m 28.93518,46.90463 -29.98008,13.309782 C 100.80507,96.009972 92.555679,93.767741 85.344144,96.969274 L 99.08594,127.92242 c 7.21154,-3.20151 11.08091,-10.824 9.83558,-18.26193 l 26.54514,-11.784295 z" />
</svg>
